# xmcd
#
# Track frame offsets: 
#        150
#        14342
#        26669
#        41798
#        53414
#        68934
#        81411
#        95603
#        106870
#        128311
#        142652
#        160156
#        174845
#        185787
#        194503
#        209768
#        224985
#        237462
#        253378
#        294659
#
# Disc length: 4150 seconds
#
# Revision: 2
# Processed by: cddbd v1.5.2PL0 Copyright (c) Steve Scherf et al.
# Submitted via: ExactAudioCopy v0.99pb5
#
DISCID=30103414
DTITLE=Richard Clayderman - Richard Clayderman
DYEAR=2009
DGENRE=
TTITLE0=Sourenirs D'enfance
TTITLE1=Ballade pour adeline
TTITLE2=I'espoir
TTITLE3=Pour elise
TTITLE4=A comme amour
TTITLE5=Marriage damour
TTITLE6=Love story
TTITLE7=Love there from"romeo and julia"
TTITLE8=Lyphard melody
TTITLE9=The child in the silent mornings
TTITLE10=Cocerto pour une jeune fille nommee'je aime
TTITLE11=Green sleeves
TTITLE12=Les premiers sourives de vannessa
TTITLE13=Love is blue
TTITLE14=Uitlme amour
TTITLE15=Les fleurs sauvages
TTITLE16=LA vie en rose
TTITLE17=Begin the ebguine
TTITLE18=Titanic symphony
TTITLE19=Give little time to your love
EXTD=
EXTT0=
EXTT1=
EXTT2=
EXTT3=
EXTT4=
EXTT5=
EXTT6=
EXTT7=
EXTT8=
EXTT9=
EXTT10=
EXTT11=
EXTT12=
EXTT13=
EXTT14=
EXTT15=
EXTT16=
EXTT17=
EXTT18=
EXTT19=
PLAYORDER=
